<svg width="355" height="249" viewBox="0 0 355 249" fill="none" xmlns="http://www.w3.org/2000/svg">
<path d="M72.7882 91.0487L74.0017 90.9805L74.1866 89.7793C78.1201 64.224 89.8338 43.1468 109.355 26.4856C128.878 9.82339 151.571 1.5 177.5 1.5C206.713 1.5 231.481 11.7138 251.893 32.1665C272.306 52.6316 282.5 77.4514 282.5 106.714V124.5V126H284H294.892C311.506 126.538 325.389 132.635 336.631 144.305L336.632 144.305C347.88 155.97 353.5 170.088 353.5 186.75C353.5 203.807 347.65 218.161 335.939 229.906C324.205 241.64 309.882 247.5 292.875 247.5H79.875C58.1278 247.5 39.659 239.912 24.382 224.709C9.11908 209.509 1.5 191.057 1.5 169.267C1.5 149.262 8.31055 131.517 21.9825 115.975C35.6262 100.478 52.536 92.1877 72.7882 91.0487Z" stroke="url(#paint0_linear_46_7)" stroke-width="3"/>
<defs>
<linearGradient id="paint0_linear_46_7" x1="67.8227" y1="84.1225" x2="324.702" y2="230.25" gradientUnits="userSpaceOnUse">
<stop stop-color="#0066FF"/>
<stop offset="0.48" stop-color="#59007D"/>
<stop offset="1" stop-color="#FF5C00"/>
</linearGradient>
</defs>
</svg>
