<svg width="237" height="83" viewBox="0 0 237 83" fill="none" xmlns="http://www.w3.org/2000/svg">
<path d="M236 41.5C236 46.8133 232.928 52.0168 227.05 56.8834C221.179 61.7449 212.622 66.1676 201.962 69.9011C180.649 77.365 151.141 82 118.5 82C85.859 82 56.3509 77.365 35.0384 69.9011C24.3775 66.1676 15.8214 61.7449 9.95007 56.8834C4.07241 52.0168 1 46.8133 1 41.5C1 36.1867 4.07241 30.9832 9.95007 26.1166C15.8214 21.2551 24.3775 16.8324 35.0384 13.0989C56.3509 5.635 85.859 1 118.5 1C151.141 1 180.649 5.635 201.962 13.0989C212.622 16.8324 221.179 21.2551 227.05 26.1166C232.928 30.9832 236 36.1867 236 41.5Z" stroke="url(#paint0_linear)" stroke-width="2"/>
<defs>
<linearGradient id="paint0_linear" x1="209.291" y1="-4.55489" x2="207.846" y2="84.8349" gradientUnits="userSpaceOnUse">
<stop stop-color="#648FFF"/>
<stop offset="0.328125" stop-color="#785EF0"/>
<stop offset="0.697917" stop-color="#DC267F"/>
<stop offset="1" stop-color="#FE6100"/>
</linearGradient>
</defs>
</svg>
