<svg width="81" height="34" viewBox="0 0 81 34" fill="none" xmlns="http://www.w3.org/2000/svg">
<circle cx="40.7406" cy="16.9998" r="8.16583" transform="rotate(176.001 40.7406 16.9998)" stroke="url(#paint0_linear)" stroke-width="2"/>
<mask id="path-2-inside-1" fill="white">
<path fill-rule="evenodd" clip-rule="evenodd" d="M1.0081 16.3601C1.00808 16.3601 1.00805 16.3601 1.00803 16.3601L1.00818 16.3601C11.464 6.44362 25.565 0.449545 41.008 0.652858C56.4509 0.856171 70.3893 7.2194 80.5804 17.4077L80.5806 17.4077C80.5806 17.4077 80.5805 17.4078 80.5805 17.4078C80.5805 17.4078 80.5805 17.4079 80.5806 17.4079L80.5804 17.4079C70.1246 27.3244 56.0236 33.3184 40.5806 33.1151C25.1377 32.9118 11.1993 26.5486 1.00824 16.3603L1.00796 16.3603C1.00801 16.3602 1.00806 16.3602 1.0081 16.3601Z"/>
</mask>
<path d="M1.00803 16.3601L1.03435 14.3602L-3.53322 14.3001L-0.479312 17.6972L1.00803 16.3601ZM1.0081 16.3601L2.37278 17.8222L3.80776 16.4828L2.49544 15.0231L1.0081 16.3601ZM1.00818 16.3601L0.98185 18.3599L1.79466 18.3706L2.38447 17.8112L1.00818 16.3601ZM80.5804 17.4077L79.1663 18.8221L79.7412 19.3968L80.554 19.4075L80.5804 17.4077ZM80.5806 17.4077L81.9529 18.8627L85.5471 15.4729L80.607 15.4079L80.5806 17.4077ZM80.5805 17.4078L79.2083 15.9528L77.717 17.3593L79.1598 18.8155L80.5805 17.4078ZM80.5806 17.4079L80.5542 19.4077L85.4412 19.4721L82.0013 16.0002L80.5806 17.4079ZM80.5804 17.4079L80.6067 15.4081L79.7939 15.3974L79.2041 15.9567L80.5804 17.4079ZM1.00824 16.3603L2.42226 14.9459L1.84738 14.3712L1.03457 14.3605L1.00824 16.3603ZM1.00796 16.3603L-0.356719 14.8982L-3.99546 18.2946L0.981634 18.3601L1.00796 16.3603ZM-0.479312 17.6972C-0.456733 17.7223 -0.436377 17.7436 -0.419565 17.7608C-0.402759 17.7779 -0.38819 17.7921 -0.377149 17.8027C-0.366167 17.8133 -0.357198 17.8217 -0.351882 17.8266C-0.349145 17.8291 -0.346926 17.8312 -0.34559 17.8324C-0.344906 17.833 -0.344352 17.8335 -0.344018 17.8338C-0.343846 17.834 -0.343708 17.8341 -0.343624 17.8342C-0.343581 17.8342 -0.343546 17.8343 -0.343525 17.8343C-0.343514 17.8343 -0.343506 17.8343 -0.3435 17.8343C-0.343498 17.8343 -0.343495 17.8343 -0.343494 17.8343C-0.343493 17.8343 -0.343492 17.8343 -0.343492 17.8343C-0.343315 17.8345 -0.344361 17.8335 -0.34558 17.8324C-0.346913 17.8312 -0.349129 17.8291 -0.351863 17.8266C-0.357172 17.8217 -0.366135 17.8133 -0.37711 17.8028C-0.388145 17.7922 -0.402707 17.778 -0.419507 17.7608C-0.436313 17.7437 -0.456663 17.7224 -0.479236 17.6972L2.49544 15.0231C2.47286 14.9979 2.4525 14.9766 2.43569 14.9594C2.41889 14.9423 2.40432 14.9281 2.39328 14.9175C2.38229 14.9069 2.37333 14.8986 2.36801 14.8936C2.36527 14.8911 2.36305 14.8891 2.36172 14.8878C2.36103 14.8872 2.36048 14.8867 2.36015 14.8864C2.35997 14.8862 2.35984 14.8861 2.35975 14.886C2.35971 14.886 2.35967 14.886 2.35965 14.8859C2.35964 14.8859 2.35963 14.8859 2.35963 14.8859C2.35963 14.8859 2.35962 14.8859 2.35962 14.8859C2.35962 14.8859 2.35962 14.8859 2.35962 14.8859C2.35944 14.8857 2.36049 14.8867 2.36171 14.8878C2.36304 14.889 2.36526 14.8911 2.36799 14.8936C2.3733 14.8985 2.38226 14.9069 2.39324 14.9174C2.40427 14.928 2.41883 14.9423 2.43563 14.9594C2.45244 14.9765 2.47279 14.9979 2.49536 15.023L-0.479312 17.6972ZM1.03451 14.3603L1.03435 14.3602L0.981697 18.3599L0.98185 18.3599L1.03451 14.3603ZM2.38447 17.8112C12.4802 8.23623 26.0844 2.45656 40.9816 2.65268L41.0343 -1.34697C25.0457 -1.55747 10.4477 4.651 -0.368113 14.9089L2.38447 17.8112ZM40.9816 2.65268C55.8789 2.84881 69.3262 8.98464 79.1663 18.8221L81.9944 15.9933C71.4523 5.45416 57.0229 -1.13647 41.0343 -1.34697L40.9816 2.65268ZM80.607 15.4079L80.6067 15.4079L80.554 19.4075L80.5543 19.4075L80.607 15.4079ZM81.9527 18.8628C81.9528 18.8628 81.9528 18.8627 81.9529 18.8627L79.2084 15.9527C79.2084 15.9527 79.2083 15.9528 79.2083 15.9528L81.9527 18.8628ZM79.1598 18.8155L79.1598 18.8155L82.0013 16.0002L82.0012 16.0002L79.1598 18.8155ZM80.6069 15.4081L80.6067 15.4081L80.5541 19.4077L80.5542 19.4077L80.6069 15.4081ZM40.5543 35.1149C56.5429 35.3254 71.1409 29.117 81.9567 18.859L79.2041 15.9567C69.1084 25.5317 55.5042 31.3114 40.607 31.1153L40.5543 35.1149ZM-0.405781 17.7747C10.1362 28.3138 24.5657 34.9044 40.5543 35.1149L40.607 31.1153C25.7097 30.9192 12.2624 24.7833 2.42226 14.9459L-0.405781 17.7747ZM1.03457 14.3605L1.03429 14.3605L0.981634 18.3601L0.981908 18.3601L1.03457 14.3605ZM2.37264 17.8223C2.37782 17.8175 2.38198 17.8136 2.38445 17.8112C2.38572 17.81 2.38675 17.8091 2.38737 17.8085C2.38769 17.8082 2.38794 17.8079 2.3881 17.8078C2.38818 17.8077 2.38824 17.8076 2.38828 17.8076C2.3883 17.8076 2.38832 17.8076 2.38833 17.8075C2.38834 17.8075 2.38834 17.8075 2.38834 17.8075C2.38835 17.8075 2.38835 17.8075 2.38835 17.8075C2.38869 17.8072 2.38677 17.809 2.38452 17.8112C2.38207 17.8135 2.37794 17.8174 2.37278 17.8222L-0.35658 14.8981C-0.361759 14.9029 -0.365912 14.9068 -0.368386 14.9092C-0.369657 14.9104 -0.370683 14.9114 -0.371304 14.912C-0.371621 14.9123 -0.371878 14.9125 -0.372035 14.9127C-0.372115 14.9127 -0.37218 14.9128 -0.37222 14.9128C-0.37224 14.9129 -0.372257 14.9129 -0.372267 14.9129C-0.372272 14.9129 -0.372277 14.9129 -0.372279 14.9129C-0.372282 14.9129 -0.372284 14.9129 -0.372284 14.9129C-0.372621 14.9132 -0.370702 14.9114 -0.368456 14.9093C-0.366005 14.9069 -0.361875 14.903 -0.356719 14.8982L2.37264 17.8223Z" fill="url(#paint1_linear)" mask="url(#path-2-inside-1)"/>
<defs>
<linearGradient id="paint0_linear" x1="23.5379" y1="23.7495" x2="52.0361" y2="19.6975" gradientUnits="userSpaceOnUse">
<stop stop-color="#648FFF"/>
<stop offset="0.328125" stop-color="#785EF0"/>
<stop offset="0.697917" stop-color="#DC267F"/>
<stop offset="1" stop-color="#FE6100"/>
</linearGradient>
<linearGradient id="paint1_linear" x1="10.0741" y1="34.4953" x2="11.1926" y2="-0.454189" gradientUnits="userSpaceOnUse">
<stop stop-color="#648FFF"/>
<stop offset="0.328125" stop-color="#785EF0"/>
<stop offset="0.697917" stop-color="#DC267F"/>
<stop offset="1" stop-color="#FE6100"/>
</linearGradient>
</defs>
</svg>
