<svg width="244" height="168" viewBox="0 0 244 168" fill="none" xmlns="http://www.w3.org/2000/svg">
<path d="M109.88 165C109.658 165.86 109.156 166.621 108.454 167.164C107.751 167.708 106.888 168.002 106 168C105.663 168.001 105.327 167.961 105 167.88L73.0002 159.88C72.5551 159.77 72.1323 159.584 71.7502 159.33L47.7502 143.33C47.3129 143.039 46.9373 142.664 46.6449 142.227C46.3524 141.79 46.1488 141.3 46.0458 140.785C45.9427 140.27 45.9421 139.739 46.0441 139.223C46.1461 138.708 46.3487 138.217 46.6402 137.78C47.229 136.897 48.1445 136.284 49.1853 136.076C49.7007 135.973 50.2313 135.972 50.7469 136.074C51.2625 136.176 51.7529 136.379 52.1902 136.67L75.6102 152.29L107 160.12C107.51 160.251 107.989 160.48 108.41 160.797C108.831 161.113 109.186 161.509 109.453 161.962C109.721 162.416 109.896 162.917 109.97 163.439C110.043 163.96 110.012 164.491 109.88 165ZM242.65 68.2501C242.159 69.745 241.376 71.1274 240.346 72.3171C239.316 73.5067 238.059 74.4799 236.65 75.1801L212.39 87.3201L156.85 142.86C156.356 143.34 155.747 143.684 155.081 143.859C154.416 144.034 153.716 144.034 153.05 143.86L89.0502 127.86C88.5599 127.741 88.0978 127.527 87.6902 127.23L31.9302 87.4401L7.3702 75.1501C5.96037 74.4456 4.70311 73.4704 3.67023 72.28C2.63734 71.0896 1.84906 69.7074 1.3504 68.2123C0.851733 66.7173 0.652459 65.1386 0.763953 63.5666C0.875447 61.9945 1.29553 60.4598 2.0002 59.0501L26.8402 9.37006C27.5446 7.96023 28.5199 6.70297 29.7103 5.67009C30.9007 4.6372 32.2829 3.84892 33.7779 3.35025C35.273 2.85159 36.8516 2.65232 38.4237 2.76381C39.9958 2.87531 41.5305 3.29538 42.9402 4.00006L66.4002 15.7301L120.9 0.150059C121.62 -0.0498569 122.38 -0.0498569 123.1 0.150059L177.6 15.7301L201.06 4.00006C202.47 3.29538 204.005 2.87531 205.577 2.76381C207.149 2.65232 208.727 2.85159 210.222 3.35025C211.718 3.84892 213.1 4.6372 214.29 5.67009C215.48 6.70297 216.456 7.96023 217.16 9.37006L242 59.0601C242.71 60.4677 243.133 62.0024 243.244 63.5748C243.356 65.1473 243.154 66.7263 242.65 68.2201V68.2501ZM10.9402 68.0001L32.2102 78.6301L60.6302 21.7901L39.3702 11.1601C38.9007 10.9243 38.3894 10.7833 37.8655 10.7452C37.3415 10.707 36.8152 10.7725 36.3165 10.9378C35.8178 11.1031 35.3566 11.365 34.9592 11.7085C34.5618 12.0521 34.2359 12.4706 34.0002 12.9401L9.1602 62.6301C8.92443 63.0995 8.78345 63.6108 8.74531 64.1348C8.70717 64.6588 8.77261 65.1851 8.9379 65.6838C9.1032 66.1824 9.3651 66.6436 9.70866 67.0411C10.0522 67.4385 10.4707 67.7644 10.9402 68.0001ZM188 100.33L154.22 73.2701C135.69 90.0301 111.44 92.7801 91.5602 80.0801C90.0411 79.117 88.7579 77.8247 87.8056 76.2988C86.8533 74.773 86.2561 73.0526 86.0583 71.2648C85.8606 69.477 86.0672 67.6677 86.6629 65.9706C87.2587 64.2734 88.2284 62.7319 89.5002 61.4601L135.2 17.1301C135.95 16.4021 136.955 15.9965 138 16.0001H149.44L122 8.16006L68.7902 23.3601L39.1102 82.7301L91.7102 120.3L152.77 135.57L188 100.33ZM205.12 83.2101L175.53 24.0001H139.62L95.1302 67.1601C94.7159 67.5753 94.4009 68.0788 94.2086 68.6329C94.0164 69.1871 93.952 69.7775 94.0202 70.3601C94.084 70.9668 94.2834 71.5514 94.6036 72.0707C94.9238 72.59 95.3567 73.0306 95.8702 73.3601C109.82 82.2701 131.67 84.8001 151.16 65.1601C151.856 64.4598 152.787 64.0417 153.773 63.9863C154.759 63.9309 155.73 64.2422 156.5 64.8601L193.71 94.6601L205.12 83.2101ZM234.83 62.6301L210 12.9401C209.765 12.4706 209.439 12.0521 209.041 11.7085C208.644 11.365 208.183 11.1031 207.684 10.9378C207.185 10.7725 206.659 10.707 206.135 10.7452C205.611 10.7833 205.1 10.9243 204.63 11.1601L183.37 21.7901L211.79 78.6301L233.06 68.0001C233.53 67.7644 233.948 67.4385 234.292 67.0411C234.635 66.6436 234.897 66.1824 235.062 65.6838C235.228 65.1851 235.293 64.6588 235.255 64.1348C235.217 63.6108 235.076 63.0995 234.84 62.6301H234.83Z" fill="url(#paint0_linear_50_8)"/>
<defs>
<linearGradient id="paint0_linear_50_8" x1="29.5" y1="6.5" x2="132" y2="132.5" gradientUnits="userSpaceOnUse">
<stop stop-color="#5417D7"/>
<stop offset="0.49" stop-color="#970091"/>
<stop offset="1" stop-color="#FF5C00"/>
</linearGradient>
</defs>
</svg>
