<svg width="150" height="150" viewBox="0 0 150 150" fill="none" xmlns="http://www.w3.org/2000/svg">
<path d="M80.6084 50.4988L80.9226 52.8967L82.3936 50.9772L108.651 16.7139L92.1076 56.5855L91.1807 58.8193L93.4145 57.8924L133.286 41.3485L99.0228 67.6064L97.1033 69.0774L99.5012 69.3916L142.303 75L99.5012 80.6084L97.1033 80.9226L99.0228 82.3936L133.286 108.651L93.4145 92.1076L91.1807 91.1807L92.1076 93.4145L108.651 133.286L82.3936 99.0228L80.9226 97.1033L80.6084 99.5012L75 142.303L69.3916 99.5012L69.0774 97.1033L67.6064 99.0228L41.3485 133.286L57.8924 93.4145L58.8193 91.1807L56.5855 92.1076L16.7139 108.651L50.9772 82.3936L52.8967 80.9226L50.4988 80.6084L7.69702 75L50.4988 69.3916L52.8967 69.0774L50.9772 67.6064L16.7139 41.3485L56.5855 57.8924L58.8193 58.8193L57.8924 56.5855L41.3485 16.7139L67.6064 50.9772L69.0774 52.8967L69.3916 50.4988L75 7.69702L80.6084 50.4988Z" stroke="url(#paint0_linear)" stroke-width="2"/>
<defs>
<linearGradient id="paint0_linear" x1="135.52" y1="23.7029" x2="24.192" y2="125.48" gradientUnits="userSpaceOnUse">
<stop stop-color="#648FFF"/>
<stop offset="0.328125" stop-color="#785EF0"/>
<stop offset="0.697917" stop-color="#DC267F"/>
<stop offset="1" stop-color="#FE6100"/>
</linearGradient>
</defs>
</svg>
